<svg width="200" height="200" xmlns="http://www.w3.org/2000/svg">
 <title>pexeso06</title>

 <g id="Layer_1">
  <title>Layer 1</title>
  <rect fill="#4e4e60" x="-0.5" y="-0.5" width="201" height="201" id="svg_1"/>
  <rect fill="#f8da59" x="76" y="75" width="48" height="50" id="svg_2" rx="10"/>
  <rect fill="none" stroke="#f8da59" x="44" y="50" width="112" height="100" id="svg_3" stroke-width="15" rx="10"/>
  <rect fill="none" stroke="#f8da59" x="378" y="19.3335" width="1" height="0" id="svg_4"/>
  <path fill="none" stroke="#f8da59" stroke-width="15" opacity="undefined" d="m76,-19.31167l48,0l0,69l-48,0l0,-69z" id="svg_10"/>
  <path fill="none" stroke="#f8da59" stroke-width="15" opacity="undefined" d="m76,151.01092l48,0l0,69l-48,0l0,-69z" id="svg_12"/>
  <rect fill="none" stroke="#f8da59" stroke-width="15" x="184.51614" y="118.06452" width="3.87097" height="0" id="svg_14"/>
  <path transform="rotate(90, 192, 100)" fill="none" stroke="#f8da59" stroke-width="15" opacity="undefined" d="m168,65.5l48,0l0,69l-48,0l0,-69z" id="svg_5"/>
  <path transform="rotate(90, 8, 100)" fill="none" stroke="#f8da59" stroke-width="15" opacity="undefined" d="m-16,65.5l48,0l0,69l-48,0l0,-69z" id="svg_6"/>
 </g>
</svg>