<svg width="20" height="100" xmlns="http://www.w3.org/2000/svg">
 <title>arrow-thumb</title>
 <g>
  <title>Layer 1</title>
  <path id="svg_2" d="m25.19945,-13.35942l0.41758,-0.41758l-0.41758,-0.41759l0.23867,-0.23864l0.65631,0.65623l-0.65631,0.65643" stroke-width="0" stroke="#000" fill="#f8da59"/>
  <path id="svg_4" d="m48.88325,-17.56365l0.41758,-0.41758l-0.41758,-0.41759l0.23867,-0.23864l0.65631,0.65623l-0.65631,0.65643" stroke-width="0" stroke="#000" fill="#f8da59"/>
  <path transform="rotate(90, 10, 7.97905)" id="svg_1" d="m2.60504,14.18939l6.90078,-6.21186l-6.90078,-6.2119l3.94415,-3.55003l10.84577,9.76193l-10.84577,9.76496" stroke-width="0" stroke="#000" fill="#f8da59"/>
  <path transform="rotate(90, 10, 22.7086)" id="svg_12" d="m2.60504,28.91899l6.90078,-6.21186l-6.90078,-6.2119l3.94415,-3.55003l10.84577,9.76193l-10.84577,9.76496" stroke-width="0" stroke="#000" fill="#f8da59"/>
  <path transform="rotate(90, 10, 36.7098)" id="svg_13" d="m2.60504,42.92015l6.90078,-6.21186l-6.90078,-6.2119l3.94415,-3.55003l10.84577,9.76193l-10.84577,9.76496" stroke-width="0" stroke="#000" fill="#f8da59"/>
  <path transform="rotate(90, 10, 50.4932)" id="svg_14" d="m2.60504,56.70356l6.90078,-6.21186l-6.90078,-6.2119l3.94415,-3.55003l10.84577,9.76193l-10.84577,9.76496" stroke-width="0" stroke="#000" fill="#f8da59"/>
  <path transform="rotate(90, 10, 64.5777)" id="svg_15" d="m2.60504,70.78807l6.90078,-6.21186l-6.90078,-6.2119l3.94415,-3.55003l10.84577,9.76193l-10.84577,9.76496" stroke-width="0" stroke="#000" fill="#f8da59"/>
  <path transform="rotate(90, 10, 78.2341)" id="svg_16" d="m2.60504,84.44446l6.90078,-6.21186l-6.90078,-6.2119l3.94415,-3.55003l10.84577,9.76193l-10.84577,9.76496" stroke-width="0" stroke="#000" fill="#f8da59"/>
  <path transform="rotate(90, 10, 92.1845)" id="svg_17" d="m2.60504,98.3948l6.90078,-6.21186l-6.90078,-6.2119l3.94415,-3.55003l10.84577,9.76193l-10.84577,9.76496" stroke-width="0" stroke="#000" fill="#f8da59"/>
 </g>

</svg>