<svg id="visual" viewBox="0 0 900 675" width="900" height="675" xmlns="http://www.w3.org/2000/svg" xmlns:xlink="http://www.w3.org/1999/xlink" version="1.1"><rect x="0" y="0" width="900" height="675" fill="#f8da59"></rect><path d="M698 675L694.5 659C691 643 684 611 680.8 578.8C677.7 546.7 678.3 514.3 684 482.2C689.7 450 700.3 418 699.8 385.8C699.3 353.7 687.7 321.3 682.5 289.2C677.3 257 678.7 225 684.7 192.8C690.7 160.7 701.3 128.3 698.2 96.2C695 64 678 32 669.5 16L661 0L900 0L900 16C900 32 900 64 900 96.2C900 128.3 900 160.7 900 192.8C900 225 900 257 900 289.2C900 321.3 900 353.7 900 385.8C900 418 900 450 900 482.2C900 514.3 900 546.7 900 578.8C900 611 900 643 900 659L900 675Z" fill="#a7a7b0"></path><path d="M726 675L724.8 659C723.7 643 721.3 611 727.7 578.8C734 546.7 749 514.3 748.2 482.2C747.3 450 730.7 418 728.2 385.8C725.7 353.7 737.3 321.3 742.2 289.2C747 257 745 225 740.3 192.8C735.7 160.7 728.3 128.3 724.7 96.2C721 64 721 32 721 16L721 0L900 0L900 16C900 32 900 64 900 96.2C900 128.3 900 160.7 900 192.8C900 225 900 257 900 289.2C900 321.3 900 353.7 900 385.8C900 418 900 450 900 482.2C900 514.3 900 546.7 900 578.8C900 611 900 643 900 659L900 675Z" fill="#888894"></path><path d="M762 675L766.2 659C770.3 643 778.7 611 780.2 578.8C781.7 546.7 776.3 514.3 779.5 482.2C782.7 450 794.3 418 794.2 385.8C794 353.7 782 321.3 777.7 289.2C773.3 257 776.7 225 782 192.8C787.3 160.7 794.7 128.3 795.5 96.2C796.3 64 790.7 32 787.8 16L785 0L900 0L900 16C900 32 900 64 900 96.2C900 128.3 900 160.7 900 192.8C900 225 900 257 900 289.2C900 321.3 900 353.7 900 385.8C900 418 900 450 900 482.2C900 514.3 900 546.7 900 578.8C900 611 900 643 900 659L900 675Z" fill="#6a6a7a"></path><path d="M868 675L868.2 659C868.3 643 868.7 611 864.3 578.8C860 546.7 851 514.3 850.7 482.2C850.3 450 858.7 418 863.2 385.8C867.7 353.7 868.3 321.3 861.2 289.2C854 257 839 225 830.3 192.8C821.7 160.7 819.3 128.3 821.7 96.2C824 64 831 32 834.5 16L838 0L900 0L900 16C900 32 900 64 900 96.2C900 128.3 900 160.7 900 192.8C900 225 900 257 900 289.2C900 321.3 900 353.7 900 385.8C900 418 900 450 900 482.2C900 514.3 900 546.7 900 578.8C900 611 900 643 900 659L900 675Z" fill="#4e4e60"></path></svg>